<svg xmlns="http://www.w3.org/2000/svg" viewBox="0 0 64 64">
  <defs>
    <linearGradient id="bg" x1="0" y1="0" x2="1" y2="1">
      <stop offset="0%" stop-color="#f6d15a"/>
      <stop offset="55%" stop-color="#ea8a2f"/>
      <stop offset="100%" stop-color="#c6455c"/>
    </linearGradient>
    <linearGradient id="accent" x1="0" y1="0" x2="1" y2="1">
      <stop offset="0%" stop-color="#53c2c0"/>
      <stop offset="100%" stop-color="#2a8f9e"/>
    </linearGradient>
  </defs>

  <rect width="64" height="64" rx="16" fill="#151515"/>
  <rect x="4" y="4" width="56" height="56" rx="14" fill="url(#bg)"/>

  <path d="M8 19C14 15 20 15 26 19C32 23 38 23 44 19C50 15 56 15 60 18V27C54 30 48 30 42 27C36 24 30 24 24 27C18 30 12 30 8 27V19Z" fill="#111111" opacity="0.92"/>
  <path d="M4 30C10 27 16 27 22 30C28 33 34 33 40 30C46 27 52 27 60 31V40C54 43 48 43 42 40C36 37 30 37 24 40C18 43 12 43 4 39V30Z" fill="url(#accent)"/>
  <path d="M4 44C11 41 18 41 25 44C32 47 39 47 46 44C52 41 58 41 64 44V60H4V44Z" fill="#f2b134"/>

  <path d="M10 12L15 8L20 12L25 8L30 12L35 8L40 12L45 8L50 12L55 8V15H10V12Z" fill="none" stroke="#111111" stroke-width="2.2" stroke-linecap="round" stroke-linejoin="round"/>
  <path d="M9 23C13 20 17 20 21 23C25 26 29 26 33 23C37 20 41 20 45 23C49 26 53 26 57 23" fill="none" stroke="#f6d15a" stroke-width="2" stroke-linecap="round"/>
  <path d="M9 35C13 32 17 32 21 35C25 38 29 38 33 35C37 32 41 32 45 35C49 38 53 38 57 35" fill="none" stroke="#111111" stroke-width="2" stroke-linecap="round"/>
  <path d="M8 49L14 45L20 49L26 45L32 49L38 45L44 49L50 45L56 49" fill="none" stroke="#111111" stroke-width="2.2" stroke-linecap="round" stroke-linejoin="round"/>

  <circle cx="32" cy="32" r="8.5" fill="#fff5df" opacity="0.9"/>
  <path d="M28 37L32 19L36 37" fill="none" stroke="#111111" stroke-width="3" stroke-linecap="round" stroke-linejoin="round"/>
  <path d="M29.5 31H34.5" fill="none" stroke="#111111" stroke-width="3" stroke-linecap="round"/>
</svg>